HIERARCHY
ROOT Hips
{
	OFFSET	0.00	0.00	0.00
	CHANNELS 6 Xposition Yposition Zposition Zrotation Xrotation Yrotation
	JOINT LeftUpLeg
	{
		OFFSET	 0.126116	-0.065224	 0.014019
		CHANNELS 3 Zrotation Xrotation Yrotation
		JOINT LeftLeg
		{
			OFFSET	 0.000000	 0.569914	 0.000000
			CHANNELS 3 Zrotation Xrotation Yrotation
			JOINT LeftFoot
			{
				OFFSET	 0.000000	 0.544423	 0.000000
				CHANNELS 3 Zrotation Xrotation Yrotation
				JOINT LeftToeBase
				{
					OFFSET	 0.000000	 0.207117	 0.000000
					CHANNELS 3 Zrotation Xrotation Yrotation
					End Site
					{
						OFFSET	 0.000000	 0.207117	 0.000000
					}
				}
			}
		}
	}
	JOINT RightUpLeg
	{
		OFFSET	-0.124023	-0.065224	 0.008373
		CHANNELS 3 Zrotation Xrotation Yrotation
		JOINT RightLeg
		{
			OFFSET	 0.000000	 0.570047	 0.000000
			CHANNELS 3 Zrotation Xrotation Yrotation
			JOINT RightFoot
			{
				OFFSET	 0.000000	 0.544354	 0.000000
				CHANNELS 3 Zrotation Xrotation Yrotation
				JOINT RightToeBase
				{
					OFFSET	 0.000000	 0.207540	 0.000000
					CHANNELS 3 Zrotation Xrotation Yrotation
					End Site
					{
						OFFSET	 0.000000	 0.207540	 0.000000
					}
				}
			}
		}
	}
	JOINT Spine
	{
		OFFSET	 0.000184	 0.117403	 0.007763
		CHANNELS 3 Zrotation Xrotation Yrotation
		JOINT Spine1
		{
			OFFSET	 0.000000	 0.137269	 0.000000
			CHANNELS 3 Zrotation Xrotation Yrotation
			JOINT Spine2
			{
				OFFSET	 0.000000	 0.156879	 0.000000
				CHANNELS 3 Zrotation Xrotation Yrotation
				JOINT LeftShoulder
				{
					OFFSET	 0.080501	 0.160143	 0.002496
					CHANNELS 3 Zrotation Xrotation Yrotation
					JOINT LeftArm
					{
						OFFSET	 0.000000	 0.164363	 0.000000
						CHANNELS 3 Zrotation Xrotation Yrotation
						JOINT LeftForeArm
						{
							OFFSET	 0.000000	 0.364576	 0.000000
							CHANNELS 3 Zrotation Xrotation Yrotation
							JOINT LeftHand
							{
								OFFSET	 0.000000	 0.360812	 0.000000
								CHANNELS 3 Zrotation Xrotation Yrotation
								JOINT LeftHandIndex1
								{
									OFFSET	 0.000000	 0.086006	 0.000000
									CHANNELS 3 Zrotation Xrotation Yrotation
									JOINT LeftHandIndex2
									{
										OFFSET	 0.000000	 0.047237	 0.000000
										CHANNELS 3 Zrotation Xrotation Yrotation
										JOINT LeftHandIndex3
										{
											OFFSET	-0.004284	 0.038165	 0.000551
											CHANNELS 3 Zrotation Xrotation Yrotation
											End Site
											{
												OFFSET	-0.004284	 0.038165	 0.000551
											}
										}
									}
								}
							}
						}
					}
				}
				JOINT Neck
				{
					OFFSET	 0.000000	 0.176489	 0.000000
					CHANNELS 3 Zrotation Xrotation Yrotation
					JOINT Head
					{
						OFFSET	 0.000000	 0.077941	 0.001747
						CHANNELS 3 Zrotation Xrotation Yrotation
						End Site
						{
							OFFSET	 0.000000	 0.077941	 0.001747
						}
					}
				}
				JOINT RightShoulder
				{
					OFFSET	-0.080363	 0.159706	-0.000306
					CHANNELS 3 Zrotation Xrotation Yrotation
					JOINT RightArm
					{
						OFFSET	 0.000000	 0.164196	 0.000000
						CHANNELS 3 Zrotation Xrotation Yrotation
						JOINT RightForeArm
						{
							OFFSET	 0.000000	 0.365611	 0.000000
							CHANNELS 3 Zrotation Xrotation Yrotation
							JOINT RightHand
							{
								OFFSET	 0.000000	 0.360648	 0.000000
								CHANNELS 3 Zrotation Xrotation Yrotation
								JOINT RightHandIndex1
								{
									OFFSET	 0.000000	 0.069977	 0.000000
									CHANNELS 3 Zrotation Xrotation Yrotation
									JOINT RightHandIndex2
									{
										OFFSET	 0.000000	 0.052305	 0.000000
										CHANNELS 3 Zrotation Xrotation Yrotation
										JOINT RightHandIndex3
										{
											OFFSET	 0.009002	 0.042196	 0.000782
											CHANNELS 3 Zrotation Xrotation Yrotation
											End Site
											{
												OFFSET	 0.009002	 0.042196	 0.000782
											}
										}
									}
								}
							}
						}
					}
				}
			}
		}
	}
}
MOTION
Frames:    6
Frame Time: 0.03333334
-0.009617	 1.233070	 0.010730	 3.046465	 0.463854	 172.192900	-163.420700	 16.399360	-16.655380	 7.713696	-26.755610	 3.967881	-16.599450	 68.923350	 7.893384	 1.162021	 26.689190	-2.659656	 179.909600	 10.716290	 8.104877	-2.540381	-30.328670	 7.803526	 12.439830	 78.893990	-9.987704	-1.288989	 28.372430	 2.710516	 2.015256	 6.168700	-7.415302	 6.766096	 5.770030	-4.154153	-5.527912	-4.899689	 14.139830	-113.195400	 6.483899	 92.935010	 13.919010	 47.678020	 9.109604	 18.392080	-0.935382	 0.067610	-1.805306	-18.865680	-20.030570	 0.561178	 8.652261	-0.355721	-5.949625	 13.577840	 1.517980	 4.985970	-3.513325	-0.334722	 3.185830	-6.825668	 0.871011	-1.252043	-5.869308	 6.955088	 123.459200	 10.373560	-96.383440	-8.667467	 44.774020	-1.325081	-5.076333	-0.199461	 0.049777	-20.086220	-10.031380	-55.121960	-2.307748	 4.845225	 0.896267	 12.530440	 22.792520	-5.133874	-8.499888	 13.014950	-0.519991
-0.009685	 1.233480	 0.010777	 3.037164	 0.430759	 172.033000	-163.379900	 16.395440	-16.759240	 7.694518	-26.799450	 3.838175	-16.741220	 68.846510	 8.042711	 1.161879	 26.687260	-2.659600	 179.917700	 10.802200	 8.010631	-2.543364	-30.378100	 7.735733	 12.028570	 78.816620	-9.561212	-1.288853	 28.370630	 2.710459	 2.088234	 6.065355	-7.420885	 6.657062	 6.046767	-4.137856	-5.415133	-5.342400	 14.140090	-113.133400	 6.492618	 92.941530	 13.303250	 47.789050	 9.677896	 18.801260	-0.955469	 0.074400	-1.692363	-19.511880	-19.940830	 0.609374	 8.502772	-0.355488	-5.949011	 13.611430	 1.521582	 4.988402	-3.459940	-0.333433	 3.184069	-6.826978	 0.881154	-1.248763	-5.952000	 7.025491	 123.417600	 10.380340	-96.379100	-8.364477	 44.884390	-1.492891	-5.078012	-0.199680	 0.049752	-20.876310	-10.200790	-54.923860	-2.325170	 4.899797	 0.895564	 12.540810	 22.936470	-5.168610	-8.500933	 13.132780	-0.527429
-0.009765	 1.234001	 0.010883	 3.010678	 0.371948	 171.785300	-163.325800	 16.385400	-17.087390	 7.735087	-26.819030	 3.807040	-16.971760	 68.737520	 8.289997	 1.161654	 26.684220	-2.659510	 179.922700	 10.943460	 7.860734	-2.547371	-30.449030	 7.628816	 11.377360	 78.719730	-8.885709	-1.288637	 28.367800	 2.710367	 2.187348	 5.926490	-7.420048	 6.497014	 6.379207	-4.104624	-5.253047	-5.891292	 14.122120	-113.035200	 6.506410	 92.951870	 12.567790	 47.957050	 10.392950	 19.256060	-0.977706	 0.082034	-1.494979	-20.408710	-19.756910	 0.685625	 8.266150	-0.354859	-5.948041	 13.664590	 1.527282	 4.992249	-3.375457	-0.331397	 3.181282	-6.829052	 0.897203	-1.245013	-6.062358	 7.131215	 123.351800	 10.391060	-96.372220	-7.981869	 45.023600	-1.689717	-5.080346	-0.199645	 0.049789	-21.942610	-10.475390	-54.585580	-2.352744	 4.986160	 0.894484	 12.557440	 23.164300	-5.223724	-8.502555	 13.319270	-0.539203
-0.009837	 1.234413	 0.011003	 2.982793	 0.313877	 171.541500	-163.274000	 16.373730	-17.349930	 7.742686	-26.841580	 3.708132	-17.201590	 68.645970	 8.536861	 1.161433	 26.681230	-2.659423	 179.927700	 11.082580	 7.713780	-2.551182	-30.516860	 7.524149	 10.763770	 78.640690	-8.249750	-1.288426	 28.365020	 2.710278	 2.279082	 5.811624	-7.414052	 6.357747	 6.641034	-4.067948	-5.108918	-6.336022	 14.092760	-112.939000	 6.519967	 92.961960	 11.987690	 48.120470	 10.986270	 19.595550	-0.994261	 0.087841	-1.297994	-21.210120	-19.556790	 0.760273	 8.034376	-0.353935	-5.947098	 13.716650	 1.532864	 4.996011	-3.292723	-0.329408	 3.178554	-6.831084	 0.912920	-1.242110	-6.157763	 7.231111	 123.287300	 10.401540	-96.365440	-7.668794	 45.131830	-1.838304	-5.081396	-0.199643	 0.049663	-22.872410	-10.748450	-54.244060	-2.379748	 5.070734	 0.893467	 12.574000	 23.387440	-5.277869	-8.504106	 13.501910	-0.550738
-0.009929	 1.234882	 0.011186	 2.943476	 0.235253	 171.212000	-163.205200	 16.356050	-17.705670	 7.751081	-26.866450	 3.573977	-17.513060	 68.535160	 8.872207	 1.161136	 26.677200	-2.659305	 179.935600	 11.270700	 7.515646	-2.556084	-30.605460	 7.383201	 9.958586	 78.546730	-7.416602	-1.288141	 28.361280	 2.710158	 2.398397	 5.675757	-7.405504	 6.191638	 6.940601	-4.019243	-4.929945	-6.854989	 14.042040	-112.809400	 6.538249	 92.975530	 11.328160	 48.341540	 11.693350	 19.961880	-1.012123	 0.094279	-1.032484	-22.222700	-19.276110	 0.860851	 7.721907	-0.352208	-5.945834	 13.786800	 1.540388	 5.001078	-3.181214	-0.326737	 3.174877	-6.833823	 0.934103	-1.238721	-6.274970	 7.362524	 123.200300	 10.415690	-96.356330	-7.303710	 45.249260	-1.997946	-5.083746	-0.199769	 0.049759	-24.019870	-11.120610	-53.782230	-2.416148	 5.184726	 0.892160	 12.596720	 23.688240	-5.351120	-8.506138	 13.748120	-0.566294
-0.010016	 1.235289	 0.011385	 2.902847	 0.156450	 170.881000	-163.137100	 16.336220	-18.063230	 7.757777	-26.886310	 3.438925	-17.823750	 68.432890	 9.207626	 1.160838	 26.673180	-2.659187	 179.945300	 11.458770	 7.317260	-2.560690	-30.690390	 7.242257	 9.171142	 78.460530	-6.603730	-1.287857	 28.357530	 2.710037	 2.515097	 5.553790	-7.399683	 6.046697	 7.203660	-3.974322	-4.764424	-7.315994	 13.982380	-112.679700	 6.556553	 92.989040	 10.757220	 48.565190	 12.334130	 20.262520	-1.026739	 0.099629	-0.768245	-23.187360	-18.992380	 0.961484	 7.409077	-0.349926	-5.944577	 13.857020	 1.547919	 5.006144	-3.069607	-0.324074	 3.171198	-6.836568	 0.955303	-1.235586	-6.383837	 7.491492	 123.113300	 10.429810	-96.347150	-6.984981	 45.342480	-2.124389	-5.083806	-0.199767	 0.049726	-25.089670	-11.496990	-53.324230	-2.452583	 5.298817	 0.890924	 12.619940	 23.989340	-5.424755	-8.508105	 13.994570	-0.581873
